<svg width="14" height="14" viewBox="0 0 14 14" fill="none" xmlns="http://www.w3.org/2000/svg">
<path d="M1.16675 5.25008C1.16675 4.14991 1.16675 3.60041 1.50858 3.25858C1.85041 2.91675 2.39991 2.91675 3.50008 2.91675H10.5001C11.6002 2.91675 12.1497 2.91675 12.4916 3.25858C12.8334 3.60041 12.8334 4.14991 12.8334 5.25008C12.8334 5.52483 12.8334 5.6625 12.7482 5.74825C12.6625 5.83342 12.5242 5.83342 12.2501 5.83342H1.75008C1.47533 5.83342 1.33766 5.83342 1.25191 5.74825C1.16675 5.6625 1.16675 5.52425 1.16675 5.25008ZM1.16675 10.5001C1.16675 11.6002 1.16675 12.1497 1.50858 12.4916C1.85041 12.8334 2.39991 12.8334 3.50008 12.8334H10.5001C11.6002 12.8334 12.1497 12.8334 12.4916 12.4916C12.8334 12.1497 12.8334 11.6002 12.8334 10.5001V7.58342C12.8334 7.30866 12.8334 7.171 12.7482 7.08525C12.6625 7.00008 12.5242 7.00008 12.2501 7.00008H1.75008C1.47533 7.00008 1.33766 7.00008 1.25191 7.08525C1.16675 7.171 1.16675 7.30925 1.16675 7.58342V10.5001Z" fill="#4C6146"/>
<path d="M4.0835 1.75V3.5M9.91683 1.75V3.5" stroke="#4C6146" stroke-width="2" stroke-linecap="round"/>
</svg>
