<svg width="14" height="14" viewBox="0 0 14 14" fill="none" xmlns="http://www.w3.org/2000/svg">
<g clip-path="url(#clip0_2001_724)">
<path d="M4.66667 6.27661H4.32833C3.86663 6.25993 3.40642 6.33831 2.97627 6.50689C2.54611 6.67547 2.1552 6.93066 1.82778 7.25661L1.73444 7.3655V10.5855H3.32111V8.75773L3.535 8.51661L3.63222 8.40384C4.13853 7.8837 4.76886 7.50095 5.46389 7.29161C5.11603 7.02671 4.84161 6.67733 4.66667 6.27661Z" fill="black"/>
<path d="M12.1878 7.24489C11.8604 6.91894 11.4694 6.66375 11.0393 6.49517C10.6091 6.32659 10.1489 6.24821 9.68722 6.2649C9.54563 6.26565 9.40416 6.27344 9.26333 6.28823C9.08512 6.66416 8.8182 6.99114 8.48556 7.24101C9.22763 7.4461 9.89983 7.84942 10.43 8.40767L10.5272 8.51656L10.7372 8.75767V10.5893H12.2694V7.35378L12.1878 7.24489Z" fill="black"/>
<path d="M4.31667 5.51834H4.43722C4.38121 5.03738 4.4656 4.55048 4.68021 4.11643C4.89482 3.68238 5.23048 3.31972 5.64667 3.07223C5.4958 2.84175 5.28767 2.65441 5.04265 2.52854C4.79762 2.40267 4.52411 2.3426 4.2489 2.35419C3.97368 2.36579 3.70619 2.44867 3.47263 2.5947C3.23907 2.74074 3.04743 2.94493 2.91649 3.18728C2.78555 3.42963 2.7198 3.70183 2.72567 3.97723C2.73154 4.25263 2.80883 4.52178 2.94998 4.75833C3.09112 4.99489 3.29128 5.19073 3.53086 5.32668C3.77043 5.46263 4.04121 5.53403 4.31667 5.53389V5.51834Z" fill="black"/>
<path d="M9.50056 5.22677C9.50497 5.31616 9.50497 5.40571 9.50056 5.4951C9.57517 5.50705 9.65055 5.51355 9.72611 5.51455H9.8C10.0743 5.49992 10.34 5.41454 10.5715 5.2667C10.803 5.11886 10.9922 4.91362 11.1208 4.67094C11.2494 4.42826 11.3129 4.15642 11.3052 3.88189C11.2976 3.60736 11.219 3.33948 11.0771 3.10435C10.9351 2.86922 10.7348 2.67484 10.4954 2.54014C10.2561 2.40544 9.98595 2.33501 9.71131 2.3357C9.43667 2.33639 9.16689 2.40818 8.92823 2.54408C8.68958 2.67999 8.49018 2.87537 8.34945 3.11121C8.70142 3.34102 8.99085 3.65461 9.19175 4.02385C9.39266 4.39308 9.49877 4.80642 9.50056 5.22677Z" fill="black"/>
<path d="M6.94944 6.96885C7.9095 6.96885 8.68778 6.19058 8.68778 5.23052C8.68778 4.27047 7.9095 3.49219 6.94944 3.49219C5.98939 3.49219 5.21111 4.27047 5.21111 5.23052C5.21111 6.19058 5.98939 6.96885 6.94944 6.96885Z" fill="black"/>
<path d="M7.04278 7.89435C6.53493 7.87407 6.02822 7.95663 5.55308 8.13707C5.07793 8.3175 4.64415 8.59209 4.27778 8.94435L4.18056 9.05324V11.5149C4.18207 11.5951 4.19937 11.6742 4.23147 11.7477C4.26356 11.8212 4.30982 11.8876 4.3676 11.9433C4.42538 11.9989 4.49355 12.0426 4.56822 12.0718C4.64289 12.1011 4.72259 12.1153 4.80278 12.1138H9.27111C9.35129 12.1153 9.431 12.1011 9.50567 12.0718C9.58033 12.0426 9.64851 11.9989 9.70629 11.9433C9.76407 11.8876 9.81033 11.8212 9.84242 11.7477C9.87452 11.6742 9.89182 11.5951 9.89333 11.5149V9.06102L9.8 8.94435C9.43613 8.59082 9.00388 8.31534 8.52976 8.13478C8.05564 7.95423 7.54964 7.87242 7.04278 7.89435Z" fill="black"/>
</g>
<defs>
<clipPath id="clip0_2001_724">
<rect width="14" height="14" fill="white"/>
</clipPath>
</defs>
</svg>
