<svg width="14" height="14" viewBox="0 0 14 14" fill="none" xmlns="http://www.w3.org/2000/svg">
<g clip-path="url(#clip0_2001_988)">
<path d="M5.25 5.83317L7.1505 7.25884C7.26824 7.34714 7.41501 7.38767 7.56138 7.37231C7.70775 7.35695 7.84291 7.28683 7.93975 7.176L11.6667 2.9165" stroke="#4C6146" stroke-width="2" stroke-linecap="round"/>
<path d="M12.25 6.99991C12.25 8.09688 11.9064 9.1663 11.2675 10.058C10.6285 10.9497 9.72629 11.6188 8.68754 11.9714C7.64878 12.324 6.52566 12.3424 5.47593 12.0239C4.42619 11.7055 3.50258 11.0662 2.83481 10.1959C2.16704 9.32558 1.78866 8.26796 1.75281 7.17157C1.71696 6.07519 2.02544 4.99511 2.63493 4.08304C3.24442 3.17097 4.1243 2.47273 5.15099 2.08638C6.17768 1.70004 7.29959 1.64499 8.35917 1.92899" stroke="#4C6146" stroke-width="2" stroke-linecap="round"/>
</g>
<defs>
<clipPath id="clip0_2001_988">
<rect width="14" height="14" fill="white"/>
</clipPath>
</defs>
</svg>
