<svg width="14" height="14" viewBox="0 0 14 14" fill="none" xmlns="http://www.w3.org/2000/svg">
<path d="M0.84468 12.4344H1.53618C1.96968 12.4344 2.30943 12.1004 2.30943 11.6669V10.6827C3.61043 10.7647 5.49118 10.8232 6.99693 10.8232C8.50868 10.8232 10.3894 10.7647 11.6904 10.6827V11.6669C11.6904 12.1004 12.0244 12.4344 12.4637 12.4344H13.1552C13.5947 12.4344 13.9344 12.1004 13.9344 11.6669V8.28618C13.9344 7.30168 13.7352 6.74493 13.1904 6.04193L12.6982 5.40318C12.4814 4.34868 12.0947 3.24118 11.8897 2.80768C11.5789 2.14543 10.9697 1.75268 10.1904 1.64743C9.79793 1.60043 8.51468 1.56543 6.99693 1.56543C5.48543 1.56543 4.20193 1.60643 3.80943 1.64743C3.03018 1.74118 2.42093 2.14543 2.11043 2.80743C1.90543 3.24118 1.51843 4.34868 1.30168 5.40318L0.80943 6.04193C0.26443 6.74518 0.0654297 7.30168 0.0654297 8.28618V11.6669C0.0654297 12.1004 0.40543 12.4344 0.84468 12.4344ZM2.48543 4.91693C2.62593 4.27243 2.90718 3.43443 3.10043 3.09443C3.25868 2.81943 3.42868 2.70193 3.74518 2.66118C4.19018 2.59668 5.18643 2.56143 6.99693 2.56143C8.81343 2.56143 9.80943 2.58493 10.2549 2.66118C10.5654 2.70793 10.7352 2.81918 10.8994 3.09468C11.0987 3.42868 11.3622 4.27218 11.5144 4.91693C11.5674 5.13368 11.4794 5.21568 11.2509 5.19818C10.2784 5.13968 9.11818 5.07518 6.99693 5.07518C4.88193 5.07518 3.72168 5.13968 2.74893 5.19818C2.52043 5.21568 2.43843 5.13368 2.48518 4.91693M2.72518 9.30568C2.16868 9.30568 1.75268 8.88368 1.75268 8.33293C1.75268 7.77618 2.16868 7.36043 2.72518 7.36043C3.28168 7.36043 3.69793 7.77618 3.69793 8.33293C3.69793 8.88368 3.28193 9.30543 2.72543 9.30543M11.2744 9.30543C10.7177 9.30543 10.3019 8.88343 10.3019 8.33268C10.3019 7.77593 10.7177 7.36018 11.2744 7.36018C11.8252 7.36018 12.2469 7.77593 12.2469 8.33268C12.2469 8.88343 11.8252 9.30543 11.2744 9.30543ZM5.44443 9.03568C5.03418 9.03568 4.74693 8.74268 4.74693 8.33243C4.74693 7.91643 5.03418 7.62943 5.44443 7.62943H8.55568C8.96568 7.62943 9.25293 7.91643 9.25293 8.33243C9.25293 8.74243 8.96568 9.03568 8.55543 9.03568H5.44443Z" fill="#4C6146"/>
</svg>
