<svg width="14" height="14" viewBox="0 0 14 14" fill="none" xmlns="http://www.w3.org/2000/svg">
<g clip-path="url(#clip0_2001_734)">
<path d="M13.125 14H12.25C12.25 13.5169 12.1885 13.0521 12.0654 12.6055C11.9424 12.1589 11.7646 11.7419 11.5322 11.3545C11.2998 10.9671 11.0264 10.6117 10.7119 10.2881C10.3975 9.96452 10.0443 9.69108 9.65234 9.46777C9.26042 9.24447 8.84115 9.06901 8.39453 8.94141C7.94792 8.8138 7.48307 8.75 7 8.75C6.51693 8.75 6.05208 8.81152 5.60547 8.93457C5.15885 9.05762 4.74186 9.23535 4.35449 9.46777C3.96712 9.7002 3.61165 9.97363 3.28809 10.2881C2.96452 10.6025 2.69108 10.9557 2.46777 11.3477C2.24447 11.7396 2.06901 12.1589 1.94141 12.6055C1.8138 13.0521 1.75 13.5169 1.75 14H0.875C0.875 13.3392 0.970703 12.7103 1.16211 12.1133C1.35352 11.5163 1.62923 10.9694 1.98926 10.4727C2.34928 9.97591 2.77539 9.53613 3.26758 9.15332C3.75977 8.77051 4.31576 8.46289 4.93555 8.23047C4.37044 7.92513 3.89193 7.51497 3.5 7H3.0625C2.88021 7 2.70931 6.96582 2.5498 6.89746C2.3903 6.8291 2.2513 6.73568 2.13281 6.61719C2.01432 6.4987 1.9209 6.3597 1.85254 6.2002C1.78418 6.04069 1.75 5.86979 1.75 5.6875V3.9375C1.75 3.76432 1.7819 3.60026 1.8457 3.44531C1.90951 3.29036 1.99609 3.15365 2.10547 3.03516C2.21484 2.91667 2.34701 2.82096 2.50195 2.74805C2.6569 2.67513 2.81868 2.63411 2.9873 2.625C3.16504 2.22396 3.39062 1.86165 3.66406 1.53809C3.9375 1.21452 4.24967 0.938802 4.60059 0.710938C4.9515 0.483073 5.32975 0.307617 5.73535 0.18457C6.14095 0.0615234 6.5625 0 7 0C7.4375 0 7.85905 0.0615234 8.26465 0.18457C8.67025 0.307617 9.04622 0.483073 9.39258 0.710938C9.73893 0.938802 10.0511 1.21452 10.3291 1.53809C10.6071 1.86165 10.835 2.22396 11.0127 2.625C11.1859 2.63411 11.3477 2.67513 11.498 2.74805C11.6484 2.82096 11.7783 2.91667 11.8877 3.03516C11.9971 3.15365 12.0859 3.29036 12.1543 3.44531C12.2227 3.60026 12.2546 3.76432 12.25 3.9375V5.6875C12.25 5.86979 12.2158 6.04069 12.1475 6.2002C12.0791 6.3597 11.9857 6.4987 11.8672 6.61719C11.7487 6.73568 11.6097 6.8291 11.4502 6.89746C11.2907 6.96582 11.1198 7 10.9375 7C10.8008 7 10.6709 6.97949 10.5479 6.93848C10.3519 7.20736 10.1309 7.45117 9.88477 7.66992C9.63867 7.88867 9.36523 8.07552 9.06445 8.23047C9.67513 8.46289 10.2288 8.76823 10.7256 9.14648C11.2223 9.52474 11.6507 9.96452 12.0107 10.4658C12.3708 10.9671 12.6442 11.5163 12.8311 12.1133C13.0179 12.7103 13.1159 13.3392 13.125 14ZM11.375 3.9375C11.375 3.81901 11.3317 3.71647 11.2451 3.62988C11.1585 3.54329 11.056 3.5 10.9375 3.5C10.819 3.5 10.7165 3.54329 10.6299 3.62988C10.5433 3.71647 10.5 3.81901 10.5 3.9375V5.6875C10.5 5.80599 10.5433 5.90853 10.6299 5.99512C10.7165 6.08171 10.819 6.125 10.9375 6.125C11.056 6.125 11.1585 6.08171 11.2451 5.99512C11.3317 5.90853 11.375 5.80599 11.375 5.6875V3.9375ZM2.625 5.6875C2.625 5.80599 2.66829 5.90853 2.75488 5.99512C2.84147 6.08171 2.94401 6.125 3.0625 6.125H3.5V3.9375C3.5 3.81901 3.45671 3.71647 3.37012 3.62988C3.28353 3.54329 3.18099 3.5 3.0625 3.5C2.94401 3.5 2.84147 3.54329 2.75488 3.62988C2.66829 3.71647 2.625 3.81901 2.625 3.9375V5.6875ZM4.68262 7C5.00163 7.28255 5.35938 7.49902 5.75586 7.64941C6.15234 7.7998 6.56706 7.875 7 7.875C7.28255 7.875 7.55827 7.8431 7.82715 7.7793C8.09603 7.71549 8.35124 7.61979 8.59277 7.49219C8.83431 7.36458 9.06217 7.21191 9.27637 7.03418C9.49056 6.85645 9.67969 6.64909 9.84375 6.41211C9.77083 6.30729 9.71615 6.19336 9.67969 6.07031C9.64323 5.94727 9.625 5.81966 9.625 5.6875V3.9375C9.625 3.72786 9.67057 3.52962 9.76172 3.34277C9.85286 3.15592 9.9873 3.00098 10.165 2.87793C10.0192 2.57259 9.83691 2.29688 9.61816 2.05078C9.39941 1.80469 9.15104 1.59505 8.87305 1.42188C8.59505 1.2487 8.29883 1.11426 7.98438 1.01855C7.66992 0.922852 7.3418 0.875 7 0.875C6.66276 0.875 6.33464 0.920573 6.01562 1.01172C5.69661 1.10286 5.40039 1.2373 5.12695 1.41504C4.85352 1.59277 4.60742 1.80469 4.38867 2.05078C4.16992 2.29688 3.98535 2.57259 3.83496 2.87793C4.00814 3.00098 4.1403 3.15592 4.23145 3.34277C4.32259 3.52962 4.37044 3.72786 4.375 3.9375V6.125H5.25C5.25 6.00195 5.27279 5.88802 5.31836 5.7832C5.36393 5.67839 5.42546 5.58724 5.50293 5.50977C5.5804 5.43229 5.67383 5.36849 5.7832 5.31836C5.89258 5.26823 6.00651 5.24544 6.125 5.25C6.24805 5.25 6.36198 5.27279 6.4668 5.31836C6.57161 5.36393 6.66276 5.42546 6.74023 5.50293C6.81771 5.5804 6.88151 5.67383 6.93164 5.7832C6.98177 5.89258 7.00456 6.00651 7 6.125C7 6.24805 6.97721 6.36198 6.93164 6.4668C6.88607 6.57161 6.82454 6.66276 6.74707 6.74023C6.6696 6.81771 6.57617 6.88151 6.4668 6.93164C6.35742 6.98177 6.24349 7.00456 6.125 7H4.68262Z" fill="black"/>
</g>
<defs>
<clipPath id="clip0_2001_734">
<rect width="14" height="14" fill="white"/>
</clipPath>
</defs>
</svg>
