<svg width="20" height="21" viewBox="0 0 20 21" fill="none" xmlns="http://www.w3.org/2000/svg">
<g clip-path="url(#clip0_530_4716)">
<path d="M17.207 16.0273C17.6367 16.2357 18.0208 16.4961 18.3594 16.8086C18.6979 17.1211 18.9909 17.4727 19.2383 17.8633C19.4857 18.2539 19.6745 18.6706 19.8047 19.1133C19.9349 19.556 20 20.0182 20 20.5H18.75C18.75 19.9857 18.6523 19.5007 18.457 19.0449C18.2617 18.5892 17.9915 18.1921 17.6465 17.8535C17.3014 17.515 16.9043 17.248 16.4551 17.0527C16.0059 16.8574 15.5208 16.7565 15 16.75C14.4857 16.75 14.0007 16.8477 13.5449 17.043C13.0892 17.2383 12.6921 17.5085 12.3535 17.8535C12.015 18.1986 11.748 18.5957 11.5527 19.0449C11.3574 19.4941 11.2565 19.9792 11.25 20.5H10C10 20.0247 10.0651 19.5658 10.1953 19.123C10.3255 18.6803 10.5111 18.2637 10.752 17.873C10.9928 17.4824 11.2858 17.1309 11.6309 16.8184C11.9759 16.5059 12.3633 16.2422 12.793 16.0273C12.3047 15.6758 11.9271 15.2363 11.6602 14.709C11.3932 14.1816 11.2565 13.612 11.25 13C11.25 12.4857 11.3477 12.0007 11.543 11.5449C11.7383 11.0892 12.0052 10.6921 12.3438 10.3535C12.6823 10.015 13.0794 9.74479 13.5352 9.54297C13.9909 9.34115 14.4792 9.24349 15 9.25C15.5143 9.25 15.9993 9.34766 16.4551 9.54297C16.9108 9.73828 17.3079 10.0052 17.6465 10.3438C17.985 10.6823 18.2552 11.0827 18.457 11.5449C18.6589 12.0072 18.7565 12.4922 18.75 13C18.75 13.6055 18.6165 14.1719 18.3496 14.6992C18.0827 15.2266 17.7018 15.6693 17.207 16.0273ZM15 15.5C15.3451 15.5 15.6673 15.4349 15.9668 15.3047C16.2663 15.1745 16.5332 14.9954 16.7676 14.7676C17.002 14.5397 17.181 14.276 17.3047 13.9766C17.4284 13.6771 17.4935 13.3516 17.5 13C17.5 12.6549 17.4349 12.3327 17.3047 12.0332C17.1745 11.7337 16.9954 11.4668 16.7676 11.2324C16.5397 10.998 16.276 10.819 15.9766 10.6953C15.6771 10.5716 15.3516 10.5065 15 10.5C14.6549 10.5 14.3327 10.5651 14.0332 10.6953C13.7337 10.8255 13.4668 11.0046 13.2324 11.2324C12.998 11.4603 12.819 11.724 12.6953 12.0234C12.5716 12.3229 12.5065 12.6484 12.5 13C12.5 13.3451 12.5651 13.6673 12.6953 13.9668C12.8255 14.2663 13.0046 14.5332 13.2324 14.7676C13.4603 15.002 13.724 15.181 14.0234 15.3047C14.3229 15.4284 14.6484 15.4935 15 15.5ZM20 1.75V11.75C20 11.4375 19.9707 11.1641 19.9121 10.9297C19.8535 10.6953 19.7721 10.4772 19.668 10.2754C19.5638 10.0736 19.4336 9.87825 19.2773 9.68945C19.1211 9.50065 18.9453 9.29557 18.75 9.07422V3H1.25V14.25H3.75V16.8574L6.35742 14.25H10.166C10.2181 14.4714 10.2865 14.6862 10.3711 14.8945C10.4557 15.1029 10.5566 15.3047 10.6738 15.5H6.875L2.5 19.875V15.5H0V1.75H20Z" fill="#414141"/>
</g>
<defs>
<clipPath id="clip0_530_4716">
<rect width="20" height="20" fill="white" transform="translate(0 0.5)"/>
</clipPath>
</defs>
</svg>
