<svg width="16" height="16" viewBox="0 0 16 16" fill="none" xmlns="http://www.w3.org/2000/svg">
<path d="M8 2C6.80652 2 5.66193 2.47411 4.81802 3.31802C3.97411 4.16193 3.5 5.30653 3.5 6.5V8.901L2.536 11.315C2.50581 11.3908 2.49463 11.4729 2.50344 11.554C2.51225 11.6351 2.54078 11.7128 2.58655 11.7804C2.63231 11.848 2.69392 11.9033 2.76599 11.9416C2.83805 11.9799 2.9184 11.9999 3 12H13C13.0816 11.9999 13.1619 11.9799 13.234 11.9416C13.3061 11.9033 13.3677 11.848 13.4135 11.7804C13.4592 11.7128 13.4877 11.6351 13.4966 11.554C13.5054 11.4729 13.4942 11.3908 13.464 11.315L12.5 8.9V6.5C12.5 5.30653 12.0259 4.16193 11.182 3.31802C10.3381 2.47411 9.19347 2 8 2ZM8 14.5C7.55652 14.5001 7.12558 14.3528 6.77495 14.0813C6.42431 13.8098 6.17387 13.4294 6.063 13H9.937C9.82613 13.4294 9.57569 13.8098 9.22505 14.0813C8.87442 14.3528 8.44348 14.5001 8 14.5Z" fill="black"/>
</svg>
