<svg width="20" height="20" viewBox="0 0 20 20" fill="none" xmlns="http://www.w3.org/2000/svg">
<path d="M16.6668 16.6667V12.5H12.5002M3.3335 3.33332V7.49999H7.50016M16.6152 9.16665C16.4407 7.78116 15.8357 6.4854 14.8854 5.46218C13.9351 4.43897 12.6875 3.73996 11.3186 3.46376C9.9498 3.18756 8.52878 3.34811 7.25607 3.92278C5.98336 4.49744 4.9232 5.4572 4.22516 6.66665M3.38516 10.8333C3.5596 12.2188 4.16465 13.5146 5.11495 14.5378C6.06525 15.561 7.31283 16.26 8.68168 16.5362C10.0505 16.8124 11.4715 16.6519 12.7443 16.0772C14.017 15.5025 15.0771 14.5428 15.7752 13.3333" stroke="#4C6146" stroke-width="1.5" stroke-linecap="round" stroke-linejoin="round"/>
</svg>
