<svg width="14" height="14" viewBox="0 0 14 14" fill="none" xmlns="http://www.w3.org/2000/svg">
<g clip-path="url(#clip0_2001_742)">
<path d="M11.0833 10.8441C10.9286 10.8441 10.7803 10.9055 10.6709 11.0149C10.5615 11.1243 10.5 11.2727 10.5 11.4274V12.6874C10.5 12.7261 10.4846 12.7632 10.4573 12.7905C10.4299 12.8179 10.3928 12.8333 10.3542 12.8333H1.3125C1.27576 12.8334 1.24033 12.8196 1.2133 12.7947C1.18626 12.7699 1.16961 12.7357 1.16667 12.6991V2.78242C1.16667 2.74374 1.18203 2.70665 1.20938 2.6793C1.23673 2.65195 1.27382 2.63659 1.3125 2.63659H2.04167C2.19638 2.63659 2.34475 2.57513 2.45415 2.46573C2.56354 2.35633 2.625 2.20796 2.625 2.05325C2.625 1.89854 2.56354 1.75017 2.45415 1.64077C2.34475 1.53138 2.19638 1.46992 2.04167 1.46992H1.16667C0.857247 1.46992 0.560501 1.59283 0.341709 1.81163C0.122916 2.03042 0 2.32717 0 2.63659L0 12.8333C0 13.1427 0.122916 13.4394 0.341709 13.6582C0.560501 13.877 0.857247 13.9999 1.16667 13.9999H10.5C10.8094 13.9999 11.1062 13.877 11.325 13.6582C11.5438 13.4394 11.6667 13.1427 11.6667 12.8333V11.4274C11.6667 11.2727 11.6052 11.1243 11.4958 11.0149C11.3864 10.9055 11.238 10.8441 11.0833 10.8441ZM9.625 2.62492H10.3542C10.3928 2.62492 10.4299 2.64028 10.4573 2.66763C10.4846 2.69498 10.5 2.73207 10.5 2.77075V3.20825C10.5 3.36296 10.5615 3.51133 10.6709 3.62073C10.7803 3.73013 10.9286 3.79159 11.0833 3.79159C11.238 3.79159 11.3864 3.73013 11.4958 3.62073C11.6052 3.51133 11.6667 3.36296 11.6667 3.20825V2.62492C11.6667 2.3155 11.5438 2.01875 11.325 1.79996C11.1062 1.58117 10.8094 1.45825 10.5 1.45825H9.625C9.47029 1.45825 9.32192 1.51971 9.21252 1.62911C9.10313 1.7385 9.04167 1.88688 9.04167 2.04159C9.04167 2.19629 9.10313 2.34467 9.21252 2.45406C9.32192 2.56346 9.47029 2.62492 9.625 2.62492Z" fill="black"/>
<path d="M4.08333 3.20833H7.58333C7.8154 3.20833 8.03796 3.11615 8.20205 2.95205C8.36615 2.78796 8.45833 2.5654 8.45833 2.33333V2.04167C8.45833 1.8096 8.36615 1.58704 8.20205 1.42295C8.03796 1.25885 7.8154 1.16667 7.58333 1.16667H7C7 0.857247 6.87708 0.560501 6.65829 0.341709C6.4395 0.122916 6.14275 0 5.83333 0C5.52391 0 5.22717 0.122916 5.00838 0.341709C4.78958 0.560501 4.66667 0.857247 4.66667 1.16667H4.08333C3.85127 1.16667 3.62871 1.25885 3.46462 1.42295C3.30052 1.58704 3.20833 1.8096 3.20833 2.04167V2.33333C3.20833 2.5654 3.30052 2.78796 3.46462 2.95205C3.62871 3.11615 3.85127 3.20833 4.08333 3.20833ZM2.33333 5.83333C2.33333 5.98804 2.39479 6.13642 2.50419 6.24581C2.61358 6.35521 2.76196 6.41667 2.91667 6.41667H7.58333C7.73804 6.41667 7.88642 6.35521 7.99581 6.24581C8.10521 6.13642 8.16667 5.98804 8.16667 5.83333C8.16667 5.67862 8.10521 5.53025 7.99581 5.42085C7.88642 5.31146 7.73804 5.25 7.58333 5.25H2.91667C2.76196 5.25 2.61358 5.31146 2.50419 5.42085C2.39479 5.53025 2.33333 5.67862 2.33333 5.83333ZM2.91667 8.16667C2.76196 8.16667 2.61358 8.22812 2.50419 8.33752C2.39479 8.44692 2.33333 8.59529 2.33333 8.75C2.33333 8.90471 2.39479 9.05308 2.50419 9.16248C2.61358 9.27187 2.76196 9.33333 2.91667 9.33333H5.54167C5.69638 9.33333 5.84475 9.27187 5.95415 9.16248C6.06354 9.05308 6.125 8.90471 6.125 8.75C6.125 8.59529 6.06354 8.44692 5.95415 8.33752C5.84475 8.22812 5.69638 8.16667 5.54167 8.16667H2.91667ZM13.6558 4.80667C13.4372 4.58937 13.1416 4.46741 12.8333 4.46741C12.5251 4.46741 12.2294 4.58937 12.0108 4.80667L7.42 9.3975C7.39136 9.42525 7.36941 9.45917 7.35583 9.49667L6.5275 11.5558C6.5069 11.609 6.502 11.6669 6.51337 11.7227C6.52475 11.7786 6.55192 11.83 6.59167 11.8708C6.63168 11.9119 6.68312 11.94 6.73929 11.9514C6.79547 11.9628 6.85378 11.9571 6.90667 11.935L8.97167 11.1125C9.00812 11.0969 9.04165 11.0752 9.07083 11.0483L13.6558 6.4575C13.7643 6.34915 13.8504 6.22048 13.9091 6.07885C13.9678 5.93722 13.998 5.7854 13.998 5.63208C13.998 5.47877 13.9678 5.32695 13.9091 5.18532C13.8504 5.04369 13.7643 4.91502 13.6558 4.80667Z" fill="black"/>
</g>
<defs>
<clipPath id="clip0_2001_742">
<rect width="14" height="14" fill="white"/>
</clipPath>
</defs>
</svg>
