<svg width="14" height="14" viewBox="0 0 14 14" fill="none" xmlns="http://www.w3.org/2000/svg">
<g clip-path="url(#clip0_2001_1078)">
<path d="M10.6914 13.125C10.1577 13.125 9.40789 12.9319 8.28516 12.3047C6.91988 11.5391 5.86387 10.8322 4.50598 9.47788C3.19676 8.16948 2.55965 7.32237 1.66797 5.6998C0.660625 3.86776 0.832344 2.90745 1.0243 2.49702C1.25289 2.00647 1.59031 1.71308 2.02645 1.42187C2.27417 1.25956 2.53632 1.12043 2.80957 1.00624C2.83691 0.994483 2.86234 0.983272 2.88504 0.973155C3.02039 0.912178 3.22547 0.82003 3.48523 0.918467C3.65859 0.983545 3.81336 1.11671 4.05563 1.35597C4.55246 1.84597 5.23141 2.93726 5.48187 3.47319C5.65004 3.8344 5.76133 4.07284 5.7616 4.34026C5.7616 4.65335 5.6041 4.89479 5.41297 5.15538C5.37715 5.20433 5.3416 5.25108 5.30715 5.29647C5.09906 5.56991 5.0534 5.64894 5.08348 5.79003C5.14445 6.07358 5.59918 6.91769 6.34648 7.66335C7.09379 8.40901 7.91356 8.83503 8.1982 8.89573C8.34531 8.92718 8.42598 8.8796 8.70816 8.66413C8.74863 8.63323 8.7902 8.60124 8.83367 8.56925C9.12516 8.35241 9.35539 8.19901 9.66109 8.19901H9.66273C9.92879 8.19901 10.1566 8.3144 10.5339 8.50472C11.0261 8.753 12.1502 9.42319 12.6432 9.92058C12.883 10.1623 13.0167 10.3165 13.0821 10.4896C13.1805 10.7502 13.0878 10.9544 13.0274 11.0912C13.0173 11.1139 13.0061 11.1387 12.9943 11.1664C12.8792 11.4391 12.7392 11.7007 12.5762 11.9478C12.2855 12.3826 11.9911 12.7192 11.4994 12.9481C11.247 13.0675 10.9707 13.128 10.6914 13.125Z" fill="#4C6146"/>
</g>
<defs>
<clipPath id="clip0_2001_1078">
<rect width="14" height="14" fill="white"/>
</clipPath>
</defs>
</svg>
