<svg width="14" height="14" viewBox="0 0 14 14" fill="none" xmlns="http://www.w3.org/2000/svg">
<path d="M2.69267 11.0834C2.42394 11.0834 2.19975 10.9936 2.02008 10.8139C1.84042 10.6342 1.75039 10.4099 1.75 10.1407V3.85941C1.75 3.59069 1.84003 3.3665 2.02008 3.18683C2.20014 3.00716 2.42414 2.91714 2.69208 2.91675H11.3079C11.5763 2.91675 11.8003 3.00678 11.9799 3.18683C12.1596 3.36689 12.2496 3.59108 12.25 3.85941V10.1413C12.25 10.4097 12.16 10.6339 11.9799 10.8139C11.7999 10.994 11.5759 11.0838 11.3079 11.0834H2.69267ZM7 6.97675C7.04861 6.97675 7.09411 6.96936 7.1365 6.95458C7.1785 6.9398 7.22011 6.92172 7.26133 6.90033L11.4782 4.13941C11.5335 4.10597 11.5694 4.06028 11.5862 4.00233C11.6029 3.94439 11.5998 3.88664 11.5768 3.82908C11.5621 3.75403 11.5131 3.69958 11.4298 3.66575C11.347 3.6323 11.2667 3.63911 11.1889 3.68616L7 6.41675L2.81167 3.68675C2.73389 3.6393 2.65533 3.62919 2.576 3.65641C2.49667 3.68364 2.44572 3.7373 2.42317 3.81741C2.40061 3.8773 2.39769 3.93816 2.41442 4C2.43114 4.06183 2.46692 4.1085 2.52175 4.14L6.73867 6.90033C6.77989 6.92172 6.8215 6.9398 6.8635 6.95458C6.90589 6.96897 6.95139 6.97616 7 6.97616" fill="#4C6146"/>
</svg>
