<svg width="14" height="15" viewBox="0 0 14 15" fill="none" xmlns="http://www.w3.org/2000/svg">
<path fill-rule="evenodd" clip-rule="evenodd" d="M9.41325 3.25798L10.4808 4.32548C12.0493 5.89465 12.8333 6.67865 12.8333 7.65281C12.8333 8.62756 12.0493 9.41156 10.4808 10.9801C8.91159 12.5493 8.12759 13.3333 7.15284 13.3333C6.17867 13.3333 5.39409 12.5493 3.8255 10.9807L2.758 9.91323C1.85675 9.0114 1.40584 8.56106 1.23842 7.97598C1.07042 7.3909 1.21392 6.76965 1.50092 5.52773L1.666 4.8114C1.90692 3.76606 2.02767 3.2434 2.38525 2.88523C2.74284 2.52706 3.26609 2.4069 4.31142 2.16598L5.02775 2.00031C6.27025 1.7139 6.89092 1.5704 7.476 1.73781C8.06109 1.90581 8.512 2.35673 9.41325 3.25798ZM6.50184 8.85798C6.10925 8.46598 6.11217 7.90248 6.34725 7.45623C6.28905 7.37217 6.26214 7.27038 6.27117 7.16854C6.28021 7.06669 6.32462 6.97123 6.39671 6.89873C6.4688 6.82622 6.564 6.78126 6.66579 6.77164C6.76758 6.76202 6.86952 6.78835 6.95392 6.84606C7.15225 6.74106 7.36984 6.68506 7.58684 6.6874C7.70287 6.68848 7.81372 6.73561 7.895 6.81842C7.97628 6.90124 8.02134 7.01295 8.02025 7.12898C8.01917 7.24501 7.97204 7.35586 7.88923 7.43714C7.80641 7.51842 7.6947 7.56348 7.57867 7.5624C7.4436 7.56739 7.31595 7.62545 7.22342 7.72398C6.99767 7.94973 7.05659 8.17606 7.12017 8.23965C7.18434 8.30323 7.41009 8.36215 7.63584 8.1364C8.09317 7.67906 8.883 7.5274 9.38875 8.03315C9.78134 8.42573 9.77842 8.98923 9.54334 9.43548C9.60117 9.51956 9.62779 9.62121 9.61859 9.72284C9.60939 9.82448 9.56496 9.9197 9.49297 9.99203C9.42099 10.0644 9.32598 10.1093 9.22439 10.1189C9.1228 10.1286 9.02103 10.1025 8.93667 10.0451C8.67491 10.1887 8.37125 10.2365 8.078 10.1804C7.96429 10.157 7.86452 10.0895 7.80063 9.99253C7.73674 9.89561 7.71398 9.77728 7.73734 9.66356C7.7607 9.54985 7.82827 9.45008 7.9252 9.38619C8.02212 9.3223 8.14046 9.29954 8.25417 9.3229C8.35742 9.34448 8.52425 9.31065 8.66717 9.16773C8.89292 8.9414 8.834 8.71565 8.77042 8.65206C8.70625 8.58848 8.4805 8.52956 8.25475 8.75531C7.79742 9.21265 7.00759 9.36431 6.50184 8.85798ZM5.845 6.50423C5.95332 6.39587 6.03924 6.26724 6.09784 6.12568C6.15645 5.98412 6.1866 5.8324 6.18657 5.67919C6.18655 5.52598 6.15634 5.37427 6.09769 5.23273C6.03903 5.09119 5.95307 4.96259 5.84471 4.85427C5.73635 4.74595 5.60772 4.66004 5.46616 4.60143C5.3246 4.54282 5.17288 4.51267 5.01967 4.5127C4.86646 4.51273 4.71475 4.54293 4.57321 4.60159C4.43167 4.66025 4.30307 4.74621 4.19475 4.85456C3.97599 5.0734 3.85313 5.37018 3.85318 5.6796C3.85324 5.98903 3.97621 6.28576 4.19505 6.50452C4.41388 6.72328 4.71066 6.84615 5.02008 6.84609C5.32951 6.84604 5.62624 6.72307 5.845 6.50423Z" fill="#777777"/>
</svg>
